<svg id="Layer_1" data-name="Layer 1" xmlns="http://www.w3.org/2000/svg" viewBox="0 0 538.81 538.81"><defs><style>.cls-1{fill:#ea4c24;}</style></defs><path class="cls-1" d="M315.22,584.63a269.41,269.41,0,0,1-190.5-459.91,269.41,269.41,0,1,1,381,381A267.62,267.62,0,0,1,315.22,584.63Zm0-532.82A263.41,263.41,0,0,0,129,501.48,263.41,263.41,0,0,0,501.48,129,261.69,261.69,0,0,0,315.22,51.81Z" transform="translate(-45.82 -45.81)"/><path class="cls-1" d="M249.06,294.89c-12.42,0-16.58-13-16.58-24.49,0-13.76,5.37-24.7,16.78-24.7,13.89,0,16.71,15.5,16.51,25.57C265.5,283.22,260.8,294.89,249.06,294.89Zm.07-45.5c-8.19,0-12.15,9.26-12.15,20.87,0,3.9.6,11.55,3.42,16a9.82,9.82,0,0,0,8.73,4.9c11.14,0,12.08-14.29,12.14-19.93C261.47,258.25,257.18,249.39,249.13,249.39Z" transform="translate(-45.82 -45.81)"/><path class="cls-1" d="M272.41,258.52c.81-3.15,3.22-12.82,15.7-12.82,7.79,0,14.77,4,14.77,13.15,0,1.21-.07,5-3,7.59-2.08,2-4.76,2.41-7.44,2.75,7.65.33,11.34,5.23,11.34,11.54,0,8.19-6,14.16-15.84,14.16a17,17,0,0,1-11.61-4c-2.95-2.62-4.36-6.51-4.83-10.47l4.49-1.48c-.2,9.13,5.78,12.15,12,12.15,3.35,0,6.57-.81,8.79-3.16a9.65,9.65,0,0,0,2.48-6.78,10.26,10.26,0,0,0-2.75-7.38c-2.62-2.48-6.17-2.55-9.6-2.55h-6.64v-3.69H286a22.43,22.43,0,0,0,6.58-.67,7.86,7.86,0,0,0,6-8.12c0-5.1-3.76-9.46-10.47-9.46-7.45,0-11.14,5.43-11,10.47Z" transform="translate(-45.82 -45.81)"/><path class="cls-1" d="M345.49,294.89c-12.42,0-16.58-13-16.58-24.49,0-13.76,5.37-24.7,16.78-24.7,13.89,0,16.71,15.5,16.51,25.57C361.93,283.22,357.23,294.89,345.49,294.89Zm.06-45.5c-8.18,0-12.14,9.26-12.14,20.87,0,3.9.6,11.55,3.42,16a9.82,9.82,0,0,0,8.72,4.9c11.14,0,12.08-14.29,12.15-19.93C357.9,258.25,353.61,249.39,345.55,249.39Z" transform="translate(-45.82 -45.81)"/><path class="cls-1" d="M377.23,268.52a11.24,11.24,0,0,1-7.32-10.34c0-6.91,5.37-12.48,14.77-12.48,9.66,0,15.16,5.24,15.16,12.22a10.84,10.84,0,0,1-8.18,10.8A12.9,12.9,0,0,1,401.18,281c0,7.05-5.3,13.89-16.3,13.89-12,0-16.78-7.65-16.78-14.16,0-7.65,6.51-11,9.19-11.88a3.58,3.58,0,0,0,.54-.13A6,6,0,0,0,377.23,268.52Zm7.38,2.21c-6,0-12,3.29-12,10,0,5.91,4.69,10.34,12.08,10.34,8,0,11.94-4.77,12.08-10.07C396.89,273.89,390.58,270.73,384.61,270.73Zm7.85-19.12c-2.68-2.22-6.24-2.28-7.65-2.28-7.92,0-10.67,4.89-10.67,9,0,4.7,4.09,8.72,10.74,8.72,7,0,10.73-4,10.67-8.92A8,8,0,0,0,392.46,251.61Z" transform="translate(-45.82 -45.81)"/><path class="cls-1" d="M253,374.55h-4.09V336.09c-1.75,1.34-4.57,2-8.59,1.88v-3.62c8.65-.2,8.65-5,8.59-7.18H253Z" transform="translate(-45.82 -45.81)"/><path class="cls-1" d="M276.71,363.2c.2,2.22.87,8.53,9.59,8.53,10.6,0,12.95-8.66,13.42-20.27-3.42,6.84-10.6,7.38-13.08,7.38-8.26,0-15.3-5.64-15.3-16.31,0-8.52,5.23-16.3,15.77-16.3,15.16,0,16.91,14.36,16.91,23.35,0,14.9-4.63,25.84-17.85,25.84a15.44,15.44,0,0,1-8.86-2.49c-2.69-1.94-4.16-4.49-5.3-8Zm10.4-33.48c-6.78,0-11.28,4.56-11.28,12.88,0,9.33,5.51,12.48,11.48,12.48a11.8,11.8,0,0,0,9-3.55,10.41,10.41,0,0,0,3.15-7.65C299.45,339.31,296.9,329.72,287.11,329.72Z" transform="translate(-45.82 -45.81)"/><path class="cls-1" d="M315.83,363.2c.2,2.22.87,8.53,9.59,8.53,10.61,0,13-8.66,13.43-20.27-3.43,6.84-10.61,7.38-13.09,7.38-8.26,0-15.3-5.64-15.3-16.31,0-8.52,5.23-16.3,15.77-16.3,15.16,0,16.91,14.36,16.91,23.35,0,14.9-4.63,25.84-17.85,25.84a15.44,15.44,0,0,1-8.86-2.49c-2.68-1.94-4.16-4.49-5.3-8Zm10.4-33.48c-6.78,0-11.28,4.56-11.28,12.88,0,9.33,5.51,12.48,11.48,12.48a11.8,11.8,0,0,0,9-3.55,10.45,10.45,0,0,0,3.16-7.65C338.58,339.31,336,329.72,326.23,329.72Z" transform="translate(-45.82 -45.81)"/><path class="cls-1" d="M380.92,374.55h-30v-3.7l.94-.6a128.94,128.94,0,0,0,14-10.13c6-5,12.21-10.54,12.21-19,0-7.66-5.37-11.35-11.74-11.35-7.92,0-11.54,5.84-11.54,10.67a12.44,12.44,0,0,0,3.28,8.06l-5.5-.67a20.07,20.07,0,0,1-1.68-7.86c0-8.45,6.38-13.75,15.57-13.75,10.54,0,16,6.71,16,15.1,0,7.18-4.43,12.75-8.92,17.11a89.54,89.54,0,0,1-16.44,12.41h23.82Z" transform="translate(-45.82 -45.81)"/><path class="cls-1" d="M318.22,149.56h-6.3L272.2,91.36l.08,58.26h-6.21L266,82.2h6.21l40.29,57.63-.65-57.68h6.3Z" transform="translate(-45.82 -45.81)"/><path class="cls-1" d="M358.24,149.5H352l0-27.89-25.17-39.5h7.45l20.87,33.49,21.63-33.55h7.74L358.2,121.61Z" transform="translate(-45.82 -45.81)"/><path class="cls-1" d="M492.58,458.34,489.26,463,420,444.16l4.09-5.76,59.76,17.12-35.49-51.31,3.92-5.53Z" transform="translate(-45.82 -45.81)"/><path class="cls-1" d="M539.57,392.14l-4,5.69-21.06-5.47L497,417l12.16,18L505,440.82,466,379.36l3.1-4.36Zm-30.42-1.21-35.55-9.3L494,412.27Z" transform="translate(-45.82 -45.81)"/><path class="cls-1" d="M124.75,439.72l-3.53-5.23,26.18-65.43L99.08,401.61l-3.47-5.14,55.93-37.68,3.46,5.15-25.38,65.58,47.53-32.71,3.52,5.23Z" transform="translate(-45.82 -45.81)"/><path class="cls-1" d="M207.36,441.65l-32.8,22.09c-4,2.67-11.56,7.8-15.4,9.11-11.4,3.77-17.64-5.5-19.4-8.12s-5.56-8.58-4.16-15.39c1.14-6.18,5.41-9.41,9.53-12.53l5.06,4.77c-.93.51-1.77,1-2.56,1.5-6.34,4.27-8.86,10.11-3,18.82,6.52,9.67,14.25,4.57,20,.81,2.83-1.79,4.57-3,9.08-6l30.11-20.28Z" transform="translate(-45.82 -45.81)"/></svg>