<?xml version="1.0" encoding="utf-8"?>
<!-- Generator: Adobe Illustrator 24.1.0, SVG Export Plug-In . SVG Version: 6.00 Build 0)  -->
<svg version="1.1" id="Layer_1" xmlns="http://www.w3.org/2000/svg" xmlns:xlink="http://www.w3.org/1999/xlink" x="0px" y="0px"
	 viewBox="0 0 62.7 62.9" style="enable-background:new 0 0 62.7 62.9;" xml:space="preserve">
<style type="text/css">
	.st0{fill:none;stroke:#EB4B25;stroke-miterlimit:10;}
	.st1{fill-rule:evenodd;clip-rule:evenodd;fill:#EB4B25;}
</style>
<path class="st0" d="M16,58c14.7,8.5,33.4,3.4,41.9-11.2s3.4-33.4-11.2-41.9C32-3.5,13.3,1.5,4.8,16.1C-3.6,30.8,1.4,49.6,16,58z"/>
<path class="st1" d="M40.3,14.6l-4.9-2.9l0.2-0.4L43,8.1l-3.9-2.3l0.3-0.6L44.2,8L44,8.4l-7.4,3.3l4,2.3L40.3,14.6z M46.9,18.4
	L46.2,18l0.4-2.5l-3-1.7l-1.9,1.6L40.9,15l6.6-5.1l0.5,0.3L46.9,18.4z M46.7,14.9l0.7-4.2l-3.3,2.7L46.7,14.9z M25.9,25.6
	c-1.2-0.7-0.9-2.3-0.2-3.4c0.8-1.4,2-2.2,3.1-1.5c1.4,0.8,0.8,2.5,0.2,3.5C28.3,25.4,27.1,26.3,25.9,25.6z M28.6,21.1
	c-0.8-0.5-1.7,0.2-2.4,1.4c-0.2,0.4-0.6,1.2-0.6,1.8c0,0.5,0.2,0.8,0.6,1c1.1,0.6,2-0.7,2.4-1.3C29.3,22.7,29.4,21.6,28.6,21.1z
	 M30.4,23.4L30.4,23.4c0.3-0.3,1.1-1.1,2.3-0.4c0.8,0.4,1.2,1.3,0.7,2.2c-0.1,0.1-0.3,0.5-0.7,0.6c-0.3,0.1-0.6,0-0.9-0.2
	c0.7,0.5,0.8,1.2,0.5,1.8c-0.5,0.8-1.4,1.1-2.4,0.5c-0.5-0.3-0.8-0.7-0.9-1.1c-0.1-0.4-0.1-0.9,0.1-1.3l0.5,0.1
	c-0.5,0.9-0.1,1.5,0.5,1.9c0.3,0.2,0.7,0.3,1.1,0.2c0.3-0.1,0.5-0.3,0.6-0.5c0.2-0.3,0.2-0.7,0.2-0.9c-0.1-0.4-0.5-0.6-0.8-0.8
	l-0.7-0.4l0.2-0.4l0.6,0.3c0.2,0.1,0.4,0.2,0.7,0.3c0.4,0.1,0.8,0,1.1-0.5c0.3-0.5,0.2-1.2-0.5-1.5c-0.7-0.4-1.4-0.1-1.7,0.4
	L30.4,23.4z M35.3,27.8c-0.7,1.1-1,2.7,0.2,3.4c1.2,0.7,2.3-0.2,3-1.4c0.6-1,1.2-2.7-0.2-3.5C37.3,25.6,36.1,26.4,35.3,27.8z
	 M35.8,28c0.7-1.2,1.6-1.9,2.4-1.4c0.8,0.5,0.7,1.6,0,2.9c-0.3,0.6-1.2,1.9-2.4,1.3c-0.4-0.2-0.6-0.5-0.6-1
	C35.2,29.2,35.5,28.4,35.8,28z M40.2,30.4c-0.2-0.3-0.5-0.8-0.1-1.5c0.4-0.7,1.3-0.9,2.2-0.4c1,0.6,1.2,1.4,0.8,2.1
	c-0.3,0.6-0.9,0.7-1.4,0.6c0.4,0.4,0.6,1.1,0.2,1.8c-0.4,0.7-1.3,1.1-2.4,0.4c-1.2-0.7-1.2-1.7-0.9-2.4
	C39.1,30.3,39.9,30.4,40.2,30.4C40.2,30.4,40.2,30.4,40.2,30.4L40.2,30.4L40.2,30.4L40.2,30.4C40.3,30.4,40.3,30.4,40.2,30.4
	C40.3,30.4,40.3,30.4,40.2,30.4L40.2,30.4C40.3,30.4,40.2,30.4,40.2,30.4z M40.8,31c-0.6-0.3-1.4-0.4-1.8,0.3
	c-0.3,0.6-0.1,1.3,0.6,1.7c0.8,0.5,1.5,0.2,1.8-0.3C41.9,32,41.4,31.4,40.8,31z M42.7,29.6c-0.1-0.4-0.5-0.6-0.6-0.7
	c-0.8-0.5-1.3-0.1-1.6,0.3c-0.3,0.5-0.1,1.1,0.6,1.5c0.7,0.4,1.3,0.2,1.6-0.3C42.9,30,42.8,29.6,42.7,29.6z M21.4,33.6l0.4,0.2
	l2.7-4.7l-0.4-0.2c-0.1,0.2-0.4,0.7-1.3,0.2l-0.2,0.4c0.4,0.2,0.7,0.3,1,0.3L21.4,33.6z M24.8,34c-0.1,0.2-0.4,0.9,0.5,1.4
	c1.1,0.6,1.8-0.1,2.5-1.2c-0.7,0.5-1.5,0.1-1.7,0c-0.8-0.5-1.2-1.4-0.6-2.5c0.5-0.8,1.5-1.3,2.5-0.7c1.5,0.9,0.9,2.4,0.3,3.3
	c-0.9,1.5-1.9,2.3-3.3,1.5c-0.2-0.1-0.6-0.3-0.7-0.8c-0.2-0.3-0.2-0.7-0.1-1.1L24.8,34z M27.7,31.3c-0.7-0.4-1.4-0.2-1.9,0.6
	c-0.5,0.9-0.2,1.6,0.4,1.9c0.4,0.2,0.8,0.3,1.1,0.2c0.3-0.1,0.6-0.3,0.8-0.6C28.4,33,28.7,31.9,27.7,31.3z M29.1,37.7
	c-0.9-0.5-0.6-1.2-0.5-1.4l-0.6-0.1c-0.1,0.4-0.1,0.8,0.1,1.1c0.2,0.4,0.6,0.7,0.7,0.8c1.3,0.8,2.4-0.1,3.3-1.5
	c0.5-0.9,1.2-2.4-0.3-3.3c-1.1-0.6-2-0.1-2.5,0.7c-0.6,1.1-0.2,2,0.6,2.5c0.2,0.1,1,0.5,1.7,0C30.9,37.6,30.2,38.3,29.1,37.7z
	 M29.8,34.2c0.5-0.8,1.2-1,1.9-0.6c1,0.6,0.7,1.7,0.4,2.1c-0.2,0.3-0.4,0.5-0.8,0.6c-0.3,0.1-0.7,0.1-1.1-0.2
	C29.6,35.7,29.2,35.1,29.8,34.2z M34.5,41.2l-3-1.7l0.2-0.4l0.1,0c0.4,0,1,0,2-0.2c0.9-0.1,1.8-0.3,2.3-1.2c0.4-0.8,0.1-1.4-0.5-1.8
	c-0.8-0.5-1.5-0.1-1.8,0.4c-0.2,0.4-0.2,0.8-0.1,1l-0.5-0.4c0-0.1,0.1-0.5,0.3-0.9c0.5-0.8,1.4-1,2.3-0.5c1.1,0.6,1.2,1.6,0.7,2.4
	c-0.4,0.7-1.2,1-1.9,1.2c-1,0.3-2.1,0.3-2.4,0.3l2.4,1.4L34.5,41.2z M5.2,32.2l0,0.7l7.7-0.5l0-0.7l-6.6,0.5l6.3-5.1l0-0.7l-7.7,0.5
	l0,0.7l6.7-0.4L5.2,32.2z M5.5,36.8l0,0.7l3.2-0.2l4.7,2.7l-0.1-0.9l-4-2.2l3.7-2.6L13,33.4l-4.4,3.2L5.5,36.8z M49.3,52l-0.7,0.3
	l-1.8-1.8l-3.2,1.4l0.2,2.5l-0.7,0.3l-0.4-8.4l0.6-0.3L49.3,52z M46.3,50.2l-3-3l0.3,4.2L46.3,50.2z M40.8,55.9l-0.6,0.3l-5.8-5.9
	l0.7-0.3l5,5.1L39.5,48l0.7-0.3L40.8,55.9z"/>
</svg>
