<svg id="Layer_1" data-name="Layer 1" xmlns="http://www.w3.org/2000/svg" viewBox="0 0 62.32 62.32"><defs><style>.cls-1{fill:none;stroke:#eb4b25;stroke-miterlimit:10;}.cls-2{fill:#eb4b25;fill-rule:evenodd;}</style></defs><path class="cls-1" d="M16,58A30.66,30.66,0,1,0,4.82,16.14,30.67,30.67,0,0,0,16,58Z" transform="translate(-0.21 -0.31)"/><path class="cls-2" d="M40.27,14.65l-4.93-2.86.24-.41L43,8.05,39.13,5.8l.33-.58L44.21,8,44,8.41l-7.38,3.34,4,2.32Zm6.58,3.79-.69-.4.4-2.47-3-1.74-1.93,1.59L40.9,15l6.62-5.14.54.31ZM46.66,15l.69-4.18-3.3,2.67ZM26,25.64c-1.24-.72-.91-2.25-.25-3.4.79-1.37,2-2.15,3.1-1.49,1.38.8.77,2.5.17,3.49C28.26,25.42,27.12,26.31,26,25.64Zm2.62-4.53c-.82-.47-1.74.22-2.41,1.38a3.87,3.87,0,0,0-.58,1.79,1.14,1.14,0,0,0,.59,1c1.11.64,2-.73,2.36-1.29C29.29,22.7,29.37,21.57,28.57,21.11Zm1.8,2.25h0a1.74,1.74,0,0,1,2.3-.37,1.51,1.51,0,0,1,.71,2.16,1.18,1.18,0,0,1-.73.59,1.42,1.42,0,0,1-.9-.16,1.26,1.26,0,0,1,.47,1.81,1.64,1.64,0,0,1-2.4.49,2,2,0,0,1-.92-1.06A1.92,1.92,0,0,1,29,25.48l.53.12a1.26,1.26,0,0,0,.5,1.9,1.39,1.39,0,0,0,1.06.19,1.16,1.16,0,0,0,.64-.53,1.24,1.24,0,0,0,.15-.9,1.48,1.48,0,0,0-.81-.8l-.66-.39.21-.36.57.32a2.43,2.43,0,0,0,.69.32A.91.91,0,0,0,33,24.88a1.08,1.08,0,0,0-.5-1.54,1.18,1.18,0,0,0-1.7.41Zm4.94,4.43c-.66,1.14-1,2.68.24,3.39s2.32-.21,3-1.39c.6-1,1.21-2.7-.18-3.5C37.27,25.64,36.1,26.42,35.31,27.79Zm.46.25c.67-1.16,1.59-1.86,2.41-1.39s.72,1.6,0,2.88c-.33.55-1.24,1.92-2.35,1.28a1.13,1.13,0,0,1-.59-1A3.75,3.75,0,0,1,35.77,28Zm4.47,2.34a1.28,1.28,0,0,1-.14-1.45,1.5,1.5,0,0,1,2.19-.39c1,.55,1.21,1.39.81,2.09a1.25,1.25,0,0,1-1.44.6A1.5,1.5,0,0,1,41.91,33a1.66,1.66,0,0,1-2.43.45,1.71,1.71,0,0,1-.86-2.38,1.48,1.48,0,0,1,1.6-.65h.06v0h0Zm.6.65a1.23,1.23,0,0,0-1.77.3,1.25,1.25,0,0,0,.61,1.73,1.19,1.19,0,1,0,1.16-2Zm1.89-1.46a1.35,1.35,0,0,0-.64-.66,1.06,1.06,0,0,0-1.58.28,1.09,1.09,0,0,0,.57,1.48,1.06,1.06,0,0,0,1.58-.27A1,1,0,0,0,42.73,29.57Zm-21.38,4,.41.23,2.72-4.72-.4-.23c-.12.22-.4.7-1.27.22l-.21.36a1.52,1.52,0,0,0,1,.3Zm3.42.46a1,1,0,0,0,.47,1.41c1.05.61,1.79-.12,2.5-1.25a1.65,1.65,0,0,1-1.73,0,1.72,1.72,0,0,1-.58-2.51A1.75,1.75,0,0,1,27.94,31c1.51.87.85,2.4.34,3.3-.86,1.48-2,2.31-3.27,1.54a1.75,1.75,0,0,1-.74-.75,1.78,1.78,0,0,1-.07-1.1Zm3-2.73a1.28,1.28,0,0,0-1.86.63,1.24,1.24,0,0,0,.43,1.9,1.35,1.35,0,0,0,1.1.17,1.21,1.21,0,0,0,.75-.58A1.51,1.51,0,0,0,27.73,31.3Zm1.41,6.39a1,1,0,0,1-.47-1.4l-.57-.1a1.64,1.64,0,0,0,.07,1.1,1.85,1.85,0,0,0,.74.76c1.32.76,2.41-.07,3.27-1.55.51-.9,1.17-2.43-.35-3.3a1.75,1.75,0,0,0-2.51.72,1.72,1.72,0,0,0,.59,2.5,1.65,1.65,0,0,0,1.73,0C30.92,37.57,30.19,38.3,29.14,37.69Zm.63-3.51a1.28,1.28,0,0,1,1.86-.63,1.51,1.51,0,0,1,.42,2.12,1.2,1.2,0,0,1-.76.58,1.39,1.39,0,0,1-1.1-.16A1.26,1.26,0,0,1,29.77,34.18Zm4.73,7-3-1.73.22-.36h.12a15.05,15.05,0,0,0,2-.21,2.92,2.92,0,0,0,2.31-1.19,1.34,1.34,0,0,0-2.28-1.4,1.42,1.42,0,0,0-.14,1l-.51-.38A2.35,2.35,0,0,1,33.5,36a1.59,1.59,0,0,1,2.34-.48,1.68,1.68,0,0,1,.73,2.43,2.8,2.8,0,0,1-1.88,1.19,9.85,9.85,0,0,1-2.35.29l2.38,1.37Zm-29.34-9,0,.72L13,32.38l0-.72-6.62.5,6.32-5,0-.72-7.74.51.05.72,6.69-.44Zm.3,4.6,0,.71,3.2-.2L13.45,40l-.06-.88-4-2.24,3.69-2.64L13,33.38,8.66,36.56ZM49.3,52l-.73.34-1.78-1.76-3.16,1.45.18,2.49-.75.34-.36-8.37.56-.25Zm-3-1.87-3-3,.27,4.23Zm-5.53,5.76-.6.28-5.82-5.87.74-.34,5,5.15L39.51,48l.71-.32Z" transform="translate(-0.21 -0.31)"/></svg>